<mxfile host="app.diagrams.net" modified="2022-04-02T04:05:36.914Z" agent="5.0 (Windows NT 10.0; Win64; x64) AppleWebKit/537.36 (KHTML, like Gecko) Chrome/99.0.4844.84 Safari/537.36" etag="-LE_XQ64eSvTov4d2y5x" version="17.4.0" type="github">
  <diagram id="C5RBs43oDa-KdzZeNtuy" name="Page-1">
    <mxGraphModel dx="460" dy="752" grid="1" gridSize="10" guides="1" tooltips="1" connect="1" arrows="1" fold="1" page="1" pageScale="1" pageWidth="827" pageHeight="1169" math="0" shadow="0">
      <root>
        <mxCell id="WIyWlLk6GJQsqaUBKTNV-0" />
        <mxCell id="WIyWlLk6GJQsqaUBKTNV-1" parent="WIyWlLk6GJQsqaUBKTNV-0" />
        <mxCell id="HZj2hCCfuuKv53QK31Kw-2" value="" style="edgeStyle=orthogonalEdgeStyle;rounded=0;orthogonalLoop=1;jettySize=auto;html=1;" edge="1" parent="WIyWlLk6GJQsqaUBKTNV-1" source="HZj2hCCfuuKv53QK31Kw-0" target="HZj2hCCfuuKv53QK31Kw-1">
          <mxGeometry relative="1" as="geometry" />
        </mxCell>
        <mxCell id="HZj2hCCfuuKv53QK31Kw-0" value="investment = 7000000&lt;br&gt;year = 10&lt;br&gt;rate = 0.03&lt;br&gt;total = investment" style="shape=parallelogram;perimeter=parallelogramPerimeter;whiteSpace=wrap;html=1;fixedSize=1;" vertex="1" parent="WIyWlLk6GJQsqaUBKTNV-1">
          <mxGeometry x="140" y="90" width="170" height="60" as="geometry" />
        </mxCell>
        <mxCell id="HZj2hCCfuuKv53QK31Kw-4" value="" style="edgeStyle=orthogonalEdgeStyle;rounded=0;orthogonalLoop=1;jettySize=auto;html=1;shadow=1;" edge="1" parent="WIyWlLk6GJQsqaUBKTNV-1" source="HZj2hCCfuuKv53QK31Kw-1" target="HZj2hCCfuuKv53QK31Kw-3">
          <mxGeometry relative="1" as="geometry" />
        </mxCell>
        <mxCell id="HZj2hCCfuuKv53QK31Kw-7" style="edgeStyle=orthogonalEdgeStyle;rounded=0;orthogonalLoop=1;jettySize=auto;html=1;exitX=1;exitY=0.5;exitDx=0;exitDy=0;entryX=1;entryY=0.5;entryDx=0;entryDy=0;" edge="1" parent="WIyWlLk6GJQsqaUBKTNV-1" source="HZj2hCCfuuKv53QK31Kw-1" target="HZj2hCCfuuKv53QK31Kw-8">
          <mxGeometry relative="1" as="geometry">
            <mxPoint x="280" y="440" as="targetPoint" />
            <Array as="points">
              <mxPoint x="380" y="235" />
              <mxPoint x="380" y="440" />
            </Array>
          </mxGeometry>
        </mxCell>
        <mxCell id="HZj2hCCfuuKv53QK31Kw-1" value="condition&lt;br&gt;for(i = 1; i &amp;lt;= year; i++)" style="rhombus;whiteSpace=wrap;html=1;" vertex="1" parent="WIyWlLk6GJQsqaUBKTNV-1">
          <mxGeometry x="130" y="200" width="190" height="70" as="geometry" />
        </mxCell>
        <mxCell id="HZj2hCCfuuKv53QK31Kw-6" style="edgeStyle=orthogonalEdgeStyle;rounded=0;orthogonalLoop=1;jettySize=auto;html=1;entryX=0;entryY=0.5;entryDx=0;entryDy=0;exitX=0;exitY=0.5;exitDx=0;exitDy=0;" edge="1" parent="WIyWlLk6GJQsqaUBKTNV-1" source="HZj2hCCfuuKv53QK31Kw-3" target="HZj2hCCfuuKv53QK31Kw-1">
          <mxGeometry relative="1" as="geometry">
            <Array as="points">
              <mxPoint x="80" y="345" />
              <mxPoint x="80" y="235" />
            </Array>
          </mxGeometry>
        </mxCell>
        <mxCell id="HZj2hCCfuuKv53QK31Kw-3" value="total *= (1 + rate)&lt;br&gt;print value of i and total" style="whiteSpace=wrap;html=1;" vertex="1" parent="WIyWlLk6GJQsqaUBKTNV-1">
          <mxGeometry x="150" y="320" width="150" height="50" as="geometry" />
        </mxCell>
        <mxCell id="HZj2hCCfuuKv53QK31Kw-8" value="STOP" style="rounded=1;whiteSpace=wrap;html=1;" vertex="1" parent="WIyWlLk6GJQsqaUBKTNV-1">
          <mxGeometry x="190" y="420" width="70" height="40" as="geometry" />
        </mxCell>
        <mxCell id="HZj2hCCfuuKv53QK31Kw-10" value="" style="edgeStyle=orthogonalEdgeStyle;rounded=0;orthogonalLoop=1;jettySize=auto;html=1;" edge="1" parent="WIyWlLk6GJQsqaUBKTNV-1" source="HZj2hCCfuuKv53QK31Kw-9" target="HZj2hCCfuuKv53QK31Kw-0">
          <mxGeometry relative="1" as="geometry" />
        </mxCell>
        <mxCell id="HZj2hCCfuuKv53QK31Kw-9" value="START" style="rounded=1;whiteSpace=wrap;html=1;" vertex="1" parent="WIyWlLk6GJQsqaUBKTNV-1">
          <mxGeometry x="190" y="20" width="70" height="40" as="geometry" />
        </mxCell>
        <mxCell id="HZj2hCCfuuKv53QK31Kw-11" value="condition is True" style="text;strokeColor=none;fillColor=none;align=left;verticalAlign=middle;spacingLeft=4;spacingRight=4;overflow=hidden;points=[[0,0.5],[1,0.5]];portConstraint=eastwest;rotatable=0;" vertex="1" parent="WIyWlLk6GJQsqaUBKTNV-1">
          <mxGeometry x="230" y="280" width="100" height="30" as="geometry" />
        </mxCell>
        <mxCell id="HZj2hCCfuuKv53QK31Kw-12" value="condition is False" style="text;strokeColor=none;fillColor=none;align=left;verticalAlign=middle;spacingLeft=4;spacingRight=4;overflow=hidden;points=[[0,0.5],[1,0.5]];portConstraint=eastwest;rotatable=0;" vertex="1" parent="WIyWlLk6GJQsqaUBKTNV-1">
          <mxGeometry x="380" y="310" width="110" height="30" as="geometry" />
        </mxCell>
      </root>
    </mxGraphModel>
  </diagram>
</mxfile>
